<svg width="924" height="1013" viewBox="0 0 924 1013" fill="none" xmlns="http://www.w3.org/2000/svg">
<path d="M428.852 329.45C428.852 387.965 382.452 435.128 325.547 435.128C268.643 435.128 222.243 387.965 222.243 329.45C222.243 270.935 268.643 223.771 325.547 223.771C382.452 223.771 428.852 270.935 428.852 329.45Z" stroke="white" stroke-width="15"/>
<path d="M368.983 656.953L367.277 650.729L360.868 651.488C317.35 656.645 272.837 652.555 230.209 638.95C189.981 626.111 161.934 611.094 136.903 590.406C113.315 570.911 92.1644 546.194 65.9374 512.785L136.573 474.44L136.589 474.432L218.797 430.07C231.073 442.654 238.703 449.761 247.037 454.683C254.782 459.257 263.063 461.861 275.421 465.746C277.593 466.429 279.892 467.151 282.335 467.931C318.084 479.341 356.806 475.774 389.967 458.03C422.472 440.637 448.561 418.723 462.173 374.225C466.758 359.237 468.717 348.867 468.996 337.049C469.223 327.377 468.309 316.761 467.043 302.056C466.939 300.85 466.833 299.616 466.725 298.352L907.157 53.7892L460.74 991.563L368.983 656.953Z" stroke="white" stroke-width="15"/>
<path d="M189.044 287.288L188.928 287.665L188.852 288.052C184.932 308.135 183.522 319.524 183.896 330.248C184.163 337.893 185.365 345.223 186.952 354.891C187.279 356.889 187.623 358.986 187.979 361.207L29.854 445.798C17.5711 407.499 9.95539 375.118 8.00069 343.107C5.90933 308.857 10.2791 274.666 22.8138 233.844C47.7534 152.623 103.04 84.7786 176.614 45.0014C250.181 5.22733 336.122 -3.29147 415.788 21.279C456.034 33.6916 484.374 47.1766 509.755 67.2669C533.78 86.2841 555.515 111.5 582.173 148.201L430.092 231.049C404.633 205.56 380.891 196.735 365.507 191.99C329.692 180.944 291.058 184.779 258.01 202.647C224.967 220.511 200.204 250.941 189.044 287.288Z" stroke="white" stroke-width="15"/>
</svg>
